<?xml version="1.0" encoding="UTF-8"?>
<svg xmlns="http://www.w3.org/2000/svg" xmlns:xlink="http://www.w3.org/1999/xlink" width="1800pt" height="1800pt" viewBox="0 0 1800 1800">
<defs>
<clipPath id="clip-0">
<path clip-rule="nonzero" d="M 6 6 L 1794 6 L 1794 1794 L 6 1794 Z M 6 6 "/>
</clipPath>
</defs>
<g clip-path="url(#clip-0)">
<path fill="none" stroke-width="17.88" stroke-linecap="square" stroke-linejoin="miter" stroke="rgb(36.84082%, 50.67749%, 70.979309%)" stroke-opacity="1" stroke-miterlimit="3.25" d="M 14.863281 852.019531 L 14.863281 851.847656 L 14.867188 851.839844 L 14.867188 851.113281 L 14.871094 851.105469 L 14.871094 850.460938 L 14.875 850.449219 L 14.875 849.851562 L 14.878906 849.839844 L 14.878906 849.292969 L 14.882812 849.277344 L 14.882812 848.765625 L 14.886719 848.75 L 14.886719 848.265625 L 14.890625 848.246094 L 14.890625 847.785156 L 14.894531 847.765625 L 14.894531 847.34375 L 14.898438 847.320312 L 14.898438 846.910156 L 14.902344 846.886719 L 14.902344 846.488281 L 14.90625 846.464844 L 14.90625 846.089844 L 14.910156 846.0625 L 14.910156 845.695312 L 14.914062 845.664062 L 14.914062 845.328125 L 14.917969 845.300781 L 14.917969 844.945312 L 14.921875 844.914062 L 14.921875 844.609375 L 14.925781 844.570312 L 14.925781 844.25 L 14.929688 844.210938 L 14.929688 843.910156 L 14.933594 843.871094 L 14.933594 843.59375 L 14.9375 843.554688 L 14.9375 843.261719 L 14.941406 843.222656 L 14.941406 842.960938 L 14.945312 842.914062 L 14.945312 842.644531 L 14.949219 842.601562 L 14.949219 842.363281 L 14.953125 842.316406 L 14.953125 842.070312 L 14.957031 842.019531 L 14.957031 841.765625 L 14.960938 841.714844 L 14.960938 841.457031 L 14.964844 841.398438 L 14.964844 841.1875 L 14.96875 841.128906 L 14.96875 840.902344 L 14.972656 840.847656 L 14.972656 840.671875 L 14.976562 840.609375 L 14.976562 840.371094 L 14.980469 840.308594 L 14.980469 840.125 L 14.984375 840.066406 L 14.984375 839.871094 L 14.988281 839.804688 L 14.988281 839.609375 L 14.992188 839.546875 L 14.992188 839.34375 L 14.996094 839.277344 L 14.996094 839.070312 L 15 838.996094 L 15 838.855469 L 15.003906 838.78125 L 15.003906 838.640625 L 15.007812 838.566406 L 15.007812 838.414062 L 15.011719 838.335938 L 15.011719 838.109375 L 15.015625 838.035156 L 15.015625 837.878906 L 15.019531 837.796875 L 15.019531 837.640625 L 15.023438 837.558594 L 15.023438 837.476562 L 15.027344 837.390625 L 15.027344 837.222656 L 15.03125 837.136719 L 15.03125 836.972656 L 15.035156 836.882812 L 15.035156 836.796875 L 15.039062 836.703125 L 15.039062 836.527344 L 15.042969 836.433594 L 15.042969 836.34375 L 15.046875 836.246094 L 15.046875 836.152344 L 15.050781 836.058594 L 15.050781 835.960938 L 15.054688 835.867188 L 15.054688 835.675781 L 15.058594 835.582031 L 15.058594 835.476562 L 15.0625 835.375 L 15.0625 835.277344 L 15.066406 835.171875 L 15.066406 835.074219 L 15.070312 834.976562 L 15.070312 834.867188 L 15.074219 834.765625 L 15.074219 834.65625 L 15.078125 834.550781 L 15.078125 834.445312 L 15.082031 834.332031 L 15.085938 834.226562 L 15.085938 834.109375 L 15.089844 833.992188 L 15.089844 833.886719 L 15.09375 833.765625 L 15.09375 833.652344 L 15.097656 833.542969 L 15.101562 833.417969 L 15.101562 833.304688 L 15.109375 833.054688 L 15.109375 832.9375 L 15.113281 832.808594 L 15.117188 832.6875 L 15.117188 832.554688 L 15.121094 832.421875 L 15.125 832.296875 L 15.125 832.164062 L 15.132812 831.90625 L 15.136719 831.769531 L 15.136719 831.636719 L 15.140625 831.492188 L 15.144531 831.351562 L 15.148438 831.214844 L 15.152344 831.066406 L 15.152344 830.929688 L 15.15625 830.792969 L 15.160156 830.640625 L 15.164062 830.5 L 15.167969 830.34375 L 15.175781 830.046875 L 15.179688 829.886719 L 15.183594 829.738281 L 15.1875 829.570312 L 15.191406 829.40625 L 15.191406 829.25 L 15.199219 829.082031 L 15.203125 828.921875 L 15.203125 828.761719 L 15.210938 828.585938 L 15.214844 828.421875 L 15.21875 828.242188 L 15.222656 828.058594 L 15.226562 827.890625 L 15.230469 827.703125 L 15.234375 827.527344 L 15.242188 827.351562 L 15.246094 827.160156 L 15.25 826.980469 L 15.253906 826.78125 L 15.261719 826.59375 L 15.265625 826.40625 L 15.269531 826.203125 L 15.277344 826.007812 L 15.285156 825.585938 L 15.292969 825.386719 L 15.296875 825.167969 L 15.304688 824.957031 L 15.308594 824.753906 L 15.316406 824.527344 L 15.320312 824.3125 L 15.335938 823.84375 L 15.339844 823.621094 L 15.347656 823.378906 L 15.355469 823.148438 L 15.363281 822.894531 L 15.371094 822.644531 L 15.378906 822.40625 L 15.386719 822.144531 L 15.390625 821.894531 L 15.398438 821.648438 L 15.410156 821.378906 L 15.417969 821.121094 L 15.425781 820.839844 L 15.433594 820.554688 L 15.441406 820.289062 L 15.453125 819.996094 L 15.46875 819.441406 L 15.480469 819.136719 L 15.488281 818.847656 L 15.5 818.53125 L 15.507812 818.226562 L 15.519531 817.929688 L 15.53125 817.597656 L 15.539062 817.28125 L 15.550781 816.9375 L 15.566406 816.59375 L 15.574219 816.265625 L 15.589844 815.90625 L 15.601562 815.5625 L 15.613281 815.222656 L 15.625 814.84375 L 15.640625 814.488281 L 15.652344 814.09375 L 15.667969 813.699219 L 15.683594 813.324219 L 15.699219 812.914062 L 15.710938 812.519531 L 15.730469 812.089844 L 15.746094 811.65625 L 15.761719 811.246094 L 15.78125 810.789062 L 15.796875 810.359375 L 15.8125 809.925781 L 15.832031 809.449219 L 15.851562 808.996094 L 15.871094 808.496094 L 15.894531 807.992188 L 15.914062 807.515625 L 15.9375 806.984375 L 15.957031 806.480469 L 15.980469 805.976562 L 16.003906 805.421875 L 16.027344 804.890625 L 16.082031 803.710938 L 16.105469 803.148438 L 16.136719 802.523438 L 16.164062 801.929688 L 16.195312 801.273438 L 16.226562 800.609375 L 16.257812 799.976562 L 16.292969 799.277344 L 16.324219 798.605469 L 16.359375 797.933594 L 16.394531 797.1875 L 16.433594 796.476562 L 16.472656 795.683594 L 16.515625 794.886719 L 16.554688 794.121094 L 16.601562 793.273438 L 16.648438 792.460938 L 16.691406 791.644531 L 16.742188 790.734375 L 16.792969 789.863281 L 16.847656 788.890625 L 16.902344 787.960938 L 16.957031 787.023438 L 17.023438 785.976562 L 17.082031 784.96875 L 17.152344 783.847656 L 17.222656 782.714844 L 17.292969 781.625 L 17.371094 780.40625 L 17.449219 779.230469 L 17.527344 778.046875 L 17.617188 776.71875 L 17.707031 775.441406 L 17.808594 774.007812 L 17.910156 772.554688 L 18.011719 771.152344 L 18.128906 769.578125 L 18.242188 768.054688 L 18.375 766.34375 L 18.511719 764.601562 L 18.644531 762.914062 L 18.800781 761.015625 L 18.953125 759.175781 L 19.109375 757.300781 L 19.292969 755.183594 L 19.472656 753.125 L 19.679688 750.800781 L 19.898438 748.417969 L 20.117188 746.097656 L 20.367188 743.46875 L 20.621094 740.898438 L 20.882812 738.265625 L 21.191406 735.273438 L 21.5 732.339844 L 21.863281 729.003906 L 22.226562 725.722656 L 22.609375 722.339844 L 23.0625 718.472656 L 23.523438 714.660156 L 24.066406 710.285156 L 24.648438 705.726562 L 25.246094 701.210938 L 25.953125 696.007812 L 26.683594 690.832031 L 27.472656 685.429688 L 28.417969 679.160156 L 29.398438 672.890625 L 30.585938 665.582031 L 31.902344 657.835938 L 33.28125 650.03125 L 34.972656 640.859375 L 36.769531 631.554688 L 38.777344 621.636719 L 41.277344 609.863281 L 43.980469 597.796875 L 47.40625 583.355469 L 51.171875 568.390625 L 55.527344 552.101562 L 61.195312 532.320312 L 67.601562 511.515625 L 76.144531 485.925781 L 86.679688 457.105469 L 99.09375 426.25 L 116.453125 387.554688 L 137.800781 345.535156 L 165.648438 297.8125 L 166.195312 296.945312 L 166.746094 296.070312 L 167.855469 294.320312 L 170.109375 290.792969 L 174.757812 283.636719 L 184.675781 268.910156 L 207.300781 237.777344 L 208.023438 236.835938 L 208.75 235.894531 L 210.214844 234.003906 L 213.1875 230.195312 L 219.328125 222.496094 L 232.4375 206.75 L 233.292969 205.75 L 234.15625 204.75 L 235.894531 202.742188 L 239.433594 198.710938 L 246.742188 190.566406 L 262.382812 173.992188 L 263.492188 172.855469 L 264.613281 171.71875 L 266.867188 169.441406 L 271.46875 164.867188 L 281.015625 155.65625 L 301.601562 137.046875 L 302.957031 135.878906 L 304.324219 134.710938 L 307.082031 132.371094 L 312.703125 127.691406 L 324.382812 118.332031 L 349.617188 99.734375 L 351.253906 98.605469 L 352.898438 97.472656 L 356.21875 95.222656 L 362.988281 90.738281 L 377.054688 81.882812 L 378.863281 80.789062 L 380.683594 79.699219 L 384.363281 77.527344 L 391.855469 73.226562 L 407.421875 64.820312 L 409.421875 63.792969 L 411.4375 62.769531 L 415.503906 60.734375 L 423.796875 56.738281 L 425.902344 55.753906 L 428.019531 54.777344 L 432.296875 52.839844 L 441.011719 49.054688 L 443.222656 48.125 L 445.453125 47.203125 L 449.945312 45.386719 L 459.105469 41.851562 L 478.113281 35.230469 L 480.390625 34.503906 L 482.679688 33.785156 L 487.296875 32.375 L 496.6875 29.679688 L 499.070312 29.035156 L 501.460938 28.398438 L 506.289062 27.160156 L 516.105469 24.832031 L 518.59375 24.28125 L 521.09375 23.742188 L 526.136719 22.703125 L 528.675781 22.207031 L 531.230469 21.722656 L 536.382812 20.796875 L 538.976562 20.355469 L 541.585938 19.929688 L 546.847656 19.121094 L 549.496094 18.742188 L 552.160156 18.375 L 557.527344 17.695312 L 560.234375 17.382812 L 562.953125 17.085938 L 565.683594 16.804688 L 568.429688 16.539062 L 571.191406 16.296875 L 573.964844 16.066406 L 576.75 15.859375 L 579.550781 15.667969 L 582.367188 15.5 L 585.191406 15.347656 L 588.035156 15.214844 L 590.890625 15.101562 L 593.757812 15.011719 L 596.640625 14.9375 L 599.535156 14.886719 L 602.441406 14.859375 L 605.363281 14.851562 L 608.300781 14.867188 L 611.25 14.902344 L 614.210938 14.960938 L 617.183594 15.042969 L 620.171875 15.144531 L 623.175781 15.273438 L 626.1875 15.425781 L 629.214844 15.601562 L 632.253906 15.800781 L 635.308594 16.027344 L 638.371094 16.277344 L 641.449219 16.554688 L 644.539062 16.855469 L 650.753906 17.539062 L 654.148438 17.953125 L 657.550781 18.402344 L 664.40625 19.394531 L 667.851562 19.941406 L 671.3125 20.523438 L 678.273438 21.789062 L 681.773438 22.476562 L 685.285156 23.199219 L 692.347656 24.75 L 706.617188 28.3125 L 710.210938 29.300781 L 713.816406 30.328125 L 721.058594 32.503906 L 724.695312 33.652344 L 728.34375 34.84375 L 735.660156 37.351562 L 739.335938 38.671875 L 743.015625 40.035156 L 750.398438 42.894531 L 765.25 49.15625 L 768.976562 50.835938 L 772.710938 52.566406 L 780.1875 56.167969 L 795.179688 63.957031 L 798.933594 66.027344 L 802.6875 68.152344 L 810.195312 72.546875 L 825.199219 81.964844 L 828.945312 84.449219 L 832.683594 86.988281 L 840.152344 92.226562 L 855.007812 103.347656 L 884.238281 128.210938 L 887.59375 131.339844 L 890.933594 134.515625 L 897.570312 141.011719 L 910.640625 154.566406 L 913.863281 158.070312 L 917.0625 161.621094 L 923.402344 168.859375 L 935.808594 183.875 L 938.847656 187.734375 L 941.859375 191.640625 L 947.800781 199.574219 L 959.328125 215.921875 L 980.78125 250.332031 L 983.296875 254.773438 L 985.769531 259.242188 L 990.597656 268.253906 L 999.738281 286.535156 L 1001.910156 291.148438 L 1004.039062 295.777344 L 1008.152344 305.066406 L 1015.796875 323.714844 L 1017.585938 328.378906 L 1019.320312 333.039062 L 1022.636719 342.335938 L 1024.214844 346.96875 L 1025.742188 351.582031 L 1028.636719 360.757812 L 1030.003906 365.308594 L 1031.3125 369.835938 L 1033.777344 378.785156 L 1034.925781 383.203125 L 1036.019531 387.582031 L 1038.046875 396.195312 L 1039.054688 400.773438 L 1040 405.28125 L 1041.703125 414.070312 L 1042.464844 418.335938 L 1043.164062 422.511719 L 1044.386719 430.5625 L 1044.914062 434.425781 L 1045.382812 438.167969 L 1045.800781 441.785156 L 1046.167969 445.269531 L 1046.480469 448.613281 L 1046.75 451.808594 L 1046.972656 454.847656 L 1047.15625 457.726562 L 1047.296875 460.429688 L 1047.402344 462.953125 L 1047.476562 465.289062 L 1047.519531 467.425781 L 1047.539062 469.351562 L 1047.535156 471.066406 L 1047.519531 472.550781 L 1047.492188 473.800781 L 1047.457031 474.804688 L 1047.421875 475.550781 L 1047.398438 476.03125 L 1047.382812 476.234375 L 1047.390625 476.152344 L 1047.425781 475.769531 L 1047.496094 475.078125 L 1047.609375 474.066406 L 1047.777344 472.722656 L 1048.011719 471.039062 L 1048.316406 469 L 1048.707031 466.597656 L 1049.191406 463.816406 L 1049.78125 460.652344 L 1051.34375 453.125 L 1052.339844 448.742188 L 1053.5 443.929688 L 1056.367188 432.992188 L 1058.113281 426.851562 L 1060.089844 420.25 L 1064.804688 405.652344 L 1067.585938 397.644531 L 1070.675781 389.164062 L 1077.867188 370.78125 L 1082.015625 360.886719 L 1086.5625 350.523438 L 1096.941406 328.453125 L 1102.820312 316.769531 L 1109.191406 304.671875 L 1123.503906 279.34375 L 1131.492188 266.164062 L 1140.058594 252.6875 L 1159.011719 225.003906 L 1169.238281 211.148438 L 1180.085938 197.1875 L 1191.574219 183.175781 L 1203.703125 169.183594 L 1216.480469 155.269531 L 1229.902344 141.511719 L 1258.675781 114.78125 L 1274.003906 101.976562 L 1289.9375 89.671875 L 1306.449219 77.953125 L 1323.515625 66.925781 L 1341.09375 56.683594 L 1359.144531 47.332031 L 1377.625 38.96875 L 1396.472656 31.695312 L 1415.636719 25.605469 L 1435.042969 20.792969 L 1454.625 17.347656 L 1474.3125 15.351562 L 1494.015625 14.882812 L 1513.664062 16 L 1533.164062 18.765625 L 1552.433594 23.222656 L 1571.386719 29.402344 L 1589.933594 37.328125 L 1607.996094 47.011719 L 1625.488281 58.441406 L 1642.335938 71.601562 L 1658.464844 86.464844 L 1673.804688 102.988281 L 1688.296875 121.113281 L 1701.886719 140.78125 L 1714.527344 161.90625 L 1726.179688 184.414062 L 1736.804688 208.207031 L 1746.386719 233.191406 L 1754.90625 259.265625 L 1762.351562 286.320312 L 1768.726562 314.253906 L 1774.035156 342.953125 L 1778.285156 372.308594 L 1781.496094 402.21875 L 1783.691406 432.578125 L 1784.898438 463.289062 L 1785.148438 494.25 L 1784.472656 525.371094 L 1782.914062 556.566406 L 1780.507812 587.753906 L 1777.292969 618.855469 L 1773.320312 649.808594 L 1768.625 680.542969 L 1763.25 711.003906 L 1757.242188 741.140625 L 1750.644531 770.902344 L 1743.492188 800.25 L 1735.835938 829.148438 L 1727.703125 857.5625 L 1710.1875 912.847656 L 1700.867188 939.675781 L 1691.226562 965.9375 L 1671.082031 1016.730469 L 1661.351562 1039.617188 L 1651.433594 1061.988281 L 1631.128906 1105.183594 L 1620.78125 1126.007812 L 1610.320312 1146.320312 L 1589.140625 1185.433594 L 1578.445312 1204.242188 L 1567.703125 1222.5625 L 1546.105469 1257.761719 L 1502.765625 1322.644531 L 1491.953125 1337.769531 L 1481.160156 1352.46875 L 1459.667969 1380.648438 L 1417.199219 1432.367188 L 1406.714844 1444.382812 L 1396.285156 1456.054688 L 1375.625 1478.394531 L 1335.117188 1519.296875 L 1325.171875 1528.78125 L 1315.304688 1537.988281 L 1295.792969 1555.589844 L 1257.714844 1587.753906 L 1248.390625 1595.199219 L 1239.148438 1602.421875 L 1220.902344 1616.214844 L 1185.367188 1641.359375 L 1176.679688 1647.167969 L 1168.074219 1652.796875 L 1151.089844 1663.53125 L 1118.046875 1683.03125 L 1109.976562 1687.519531 L 1101.980469 1691.867188 L 1086.207031 1700.132812 L 1055.527344 1715.074219 L 1047.40625 1718.78125 L 1039.367188 1722.347656 L 1023.53125 1729.082031 L 1015.734375 1732.257812 L 1008.011719 1735.304688 L 992.800781 1741.046875 L 985.308594 1743.742188 L 977.894531 1746.328125 L 963.28125 1751.175781 L 934.921875 1759.664062 L 928.007812 1761.546875 L 921.160156 1763.34375 L 907.667969 1766.675781 L 901.019531 1768.214844 L 894.4375 1769.671875 L 881.46875 1772.355469 L 875.078125 1773.585938 L 868.753906 1774.742188 L 862.484375 1775.828125 L 856.28125 1776.84375 L 850.136719 1777.792969 L 844.050781 1778.679688 L 832.054688 1780.257812 L 826.144531 1780.953125 L 820.289062 1781.589844 L 814.492188 1782.171875 L 808.75 1782.695312 L 803.058594 1783.164062 L 797.425781 1783.582031 L 791.847656 1783.945312 L 786.320312 1784.261719 L 780.84375 1784.523438 L 775.421875 1784.742188 L 770.050781 1784.910156 L 764.726562 1785.035156 L 759.457031 1785.113281 L 754.234375 1785.148438 L 749.0625 1785.140625 L 743.9375 1785.09375 L 738.863281 1785.003906 L 733.832031 1784.878906 L 728.847656 1784.710938 L 723.914062 1784.507812 L 719.023438 1784.269531 L 714.175781 1783.996094 L 709.375 1783.6875 L 704.617188 1783.34375 L 699.90625 1782.96875 L 695.234375 1782.558594 L 690.609375 1782.121094 L 686.023438 1781.652344 L 681.480469 1781.152344 L 676.980469 1780.625 L 668.097656 1779.488281 L 664.007812 1778.917969 L 659.949219 1778.328125 L 651.9375 1777.078125 L 647.980469 1776.425781 L 644.058594 1775.746094 L 636.3125 1774.335938 L 632.488281 1773.601562 L 628.695312 1772.847656 L 621.203125 1771.285156 L 606.585938 1767.957031 L 603.007812 1767.085938 L 599.457031 1766.199219 L 592.441406 1764.382812 L 578.753906 1760.578125 L 552.675781 1752.382812 L 549.535156 1751.3125 L 546.414062 1750.226562 L 540.253906 1748.03125 L 528.21875 1743.535156 L 505.253906 1734.160156 L 502.484375 1732.957031 L 499.734375 1731.75 L 494.300781 1729.3125 L 483.679688 1724.378906 L 463.394531 1714.28125 L 460.992188 1713.027344 L 458.605469 1711.769531 L 453.890625 1709.242188 L 444.664062 1704.15625 L 427 1693.875 L 394.582031 1673.042969 L 392.675781 1671.738281 L 390.78125 1670.429688 L 387.035156 1667.8125 L 379.695312 1662.585938 L 365.613281 1652.140625 L 339.65625 1631.40625 L 337.996094 1630.011719 L 336.347656 1628.621094 L 333.082031 1625.839844 L 326.695312 1620.300781 L 314.457031 1609.316406 L 291.933594 1587.78125 L 290.609375 1586.457031 L 289.289062 1585.132812 L 286.683594 1582.496094 L 281.570312 1577.257812 L 271.746094 1566.90625 L 253.59375 1546.746094 L 252.589844 1545.59375 L 251.59375 1544.445312 L 249.621094 1542.152344 L 245.746094 1537.597656 L 238.261719 1528.609375 L 224.304688 1511.132812 L 199.921875 1478.144531 L 198.421875 1476.003906 L 196.9375 1473.875 L 194.023438 1469.652344 L 188.390625 1461.339844 L 177.875 1445.253906 L 159.441406 1415.132812 L 131.121094 1363.164062 L 111.46875 1321.96875 L 95.222656 1283.757812 L 83.445312 1253.050781 L 74.21875 1226.765625 L 66.144531 1201.777344 L 60 1181.230469 L 54.496094 1161.484375 L 50.210938 1145.046875 L 46.648438 1130.53125 L 43.355469 1116.328125 L 40.722656 1104.320312 L 38.257812 1092.484375 L 36.164062 1081.90625 L 34.453125 1072.851562 L 32.820312 1063.8125 L 31.472656 1056.027344 L 30.292969 1048.941406 L 29.148438 1041.796875 L 28.191406 1035.59375 L 27.257812 1029.320312 L 26.433594 1023.574219 L 25.738281 1018.550781 L 25.050781 1013.429688 L 24.464844 1008.9375 L 23.886719 1004.351562 L 23.367188 1000.109375 L 22.925781 996.363281 L 22.480469 992.519531 L 22.097656 989.121094 L 21.75 985.945312 L 21.402344 982.671875 L 21.097656 979.765625 L 20.792969 976.761719 L 20.515625 973.953125 L 20.273438 971.449219 L 20.027344 968.855469 L 19.8125 966.535156 L 19.613281 964.355469 L 19.414062 962.082031 L 19.234375 960.050781 L 19.054688 957.933594 L 18.890625 955.941406 L 18.742188 954.152344 L 18.59375 952.28125 L 18.460938 950.601562 L 18.324219 948.847656 L 18.199219 947.1875 L 18.089844 945.691406 L 17.972656 944.128906 L 17.871094 942.714844 L 17.777344 941.375 L 17.679688 939.96875 L 17.59375 938.699219 L 17.503906 937.363281 L 17.417969 936.097656 L 17.34375 934.953125 L 17.265625 933.746094 L 17.195312 932.652344 L 17.132812 931.613281 L 17.066406 930.515625 L 17.003906 929.523438 L 16.941406 928.472656 L 16.886719 927.523438 L 16.832031 926.617188 L 16.777344 925.65625 L 16.730469 924.785156 L 16.675781 923.867188 L 16.628906 922.988281 L 16.585938 922.191406 L 16.539062 921.347656 L 16.5 920.578125 L 16.460938 919.84375 L 16.421875 919.066406 L 16.386719 918.359375 L 16.347656 917.609375 L 16.3125 916.890625 L 16.277344 916.234375 L 16.246094 915.539062 L 16.214844 914.90625 L 16.183594 914.238281 L 16.152344 913.59375 L 16.125 913.007812 L 16.097656 912.386719 L 16.070312 911.816406 L 16.046875 911.269531 L 16.019531 910.691406 L 15.996094 910.160156 L 15.972656 909.597656 L 15.949219 909.058594 L 15.929688 908.5625 L 15.90625 908.039062 L 15.886719 907.558594 L 15.867188 907.09375 L 15.847656 906.601562 L 15.828125 906.152344 L 15.808594 905.671875 L 15.792969 905.234375 L 15.773438 904.8125 L 15.757812 904.363281 L 15.742188 903.949219 L 15.722656 903.511719 L 15.707031 903.089844 L 15.691406 902.703125 L 15.679688 902.292969 L 15.664062 901.914062 L 15.652344 901.550781 L 15.636719 901.160156 L 15.625 900.804688 L 15.609375 900.425781 L 15.597656 900.058594 L 15.585938 899.722656 L 15.574219 899.363281 L 15.5625 899.035156 L 15.550781 898.683594 L 15.539062 898.34375 L 15.527344 898.035156 L 15.515625 897.703125 L 15.503906 897.398438 L 15.496094 897.101562 L 15.484375 896.789062 L 15.476562 896.5 L 15.464844 896.191406 L 15.457031 895.894531 L 15.449219 895.621094 L 15.4375 895.328125 L 15.429688 895.058594 L 15.421875 894.796875 L 15.414062 894.519531 L 15.40625 894.265625 L 15.398438 893.992188 L 15.390625 893.726562 L 15.382812 893.484375 L 15.375 893.226562 L 15.367188 892.988281 L 15.359375 892.730469 L 15.351562 892.484375 L 15.347656 892.257812 L 15.339844 892.011719 L 15.332031 891.789062 L 15.328125 891.574219 L 15.320312 891.339844 L 15.3125 891.125 L 15.308594 890.898438 L 15.300781 890.675781 L 15.296875 890.472656 L 15.289062 890.253906 L 15.285156 890.054688 L 15.28125 889.859375 L 15.273438 889.648438 L 15.269531 889.457031 L 15.261719 889.253906 L 15.257812 889.0625 L 15.253906 888.878906 L 15.25 888.683594 L 15.242188 888.5 L 15.238281 888.304688 L 15.234375 888.117188 L 15.230469 887.945312 L 15.226562 887.757812 L 15.21875 887.585938 L 15.214844 887.417969 L 15.210938 887.242188 L 15.207031 887.078125 L 15.203125 886.902344 L 15.199219 886.730469 L 15.195312 886.570312 L 15.191406 886.402344 L 15.1875 886.246094 L 15.183594 886.078125 L 15.179688 885.917969 L 15.175781 885.769531 L 15.171875 885.605469 L 15.167969 885.457031 L 15.167969 885.316406 L 15.164062 885.160156 L 15.160156 885.019531 L 15.15625 884.867188 L 15.152344 884.71875 L 15.148438 884.582031 L 15.144531 884.433594 L 15.144531 884.296875 L 15.140625 884.167969 L 15.136719 884.027344 L 15.132812 883.894531 L 15.132812 883.753906 L 15.128906 883.625 L 15.125 883.5 L 15.121094 883.367188 L 15.121094 883.242188 L 15.117188 883.105469 L 15.113281 882.976562 L 15.113281 882.859375 L 15.109375 882.730469 L 15.105469 882.609375 L 15.105469 882.496094 L 15.101562 882.371094 L 15.101562 882.253906 L 15.09375 882.011719 L 15.09375 881.902344 L 15.089844 881.785156 L 15.089844 881.671875 L 15.085938 881.566406 L 15.082031 881.453125 L 15.082031 881.347656 L 15.078125 881.230469 L 15.078125 881.128906 L 15.074219 881.023438 L 15.074219 880.914062 L 15.070312 880.8125 L 15.070312 880.703125 L 15.066406 880.597656 L 15.066406 880.5 L 15.0625 880.394531 L 15.0625 880.296875 L 15.058594 880.203125 L 15.058594 880.097656 L 15.054688 880.003906 L 15.054688 879.902344 L 15.050781 879.804688 L 15.050781 879.714844 L 15.046875 879.617188 L 15.046875 879.425781 L 15.042969 879.332031 L 15.042969 879.246094 L 15.039062 879.148438 L 15.039062 878.976562 L 15.035156 878.886719 L 15.035156 878.800781 L 15.03125 878.710938 L 15.03125 878.539062 L 15.027344 878.453125 L 15.027344 878.371094 L 15.023438 878.292969 L 15.023438 878.128906 L 15.019531 878.042969 L 15.019531 877.886719 L 15.015625 877.804688 L 15.015625 877.648438 L 15.011719 877.566406 L 15.011719 877.414062 L 15.007812 877.339844 L 15.007812 877.191406 L 15.003906 877.121094 L 15.003906 876.898438 L 15 876.824219 L 15 876.679688 L 14.996094 876.609375 L 14.996094 876.402344 L 14.992188 876.339844 L 14.992188 876.203125 L 14.988281 876.132812 L 14.988281 875.933594 L 14.984375 875.871094 L 14.984375 875.683594 L 14.980469 875.617188 L 14.980469 875.371094 L 14.976562 875.308594 L 14.976562 875.125 L 14.972656 875.066406 L 14.972656 874.835938 L 14.96875 874.777344 L 14.96875 874.558594 L 14.964844 874.5 L 14.964844 874.285156 L 14.960938 874.230469 L 14.960938 874.019531 L 14.957031 873.964844 L 14.957031 873.714844 L 14.953125 873.664062 L 14.953125 873.417969 L 14.949219 873.371094 L 14.949219 873.085938 L 14.945312 873.039062 L 14.945312 872.773438 L 14.941406 872.726562 L 14.941406 872.46875 L 14.9375 872.425781 L 14.9375 872.136719 L 14.933594 872.097656 L 14.933594 871.820312 L 14.929688 871.785156 L 14.929688 871.484375 L 14.925781 871.445312 L 14.925781 871.121094 L 14.921875 871.085938 L 14.921875 870.78125 L 14.917969 870.75 L 14.917969 870.394531 L 14.914062 870.363281 L 14.914062 870.027344 L 14.910156 870 L 14.910156 869.628906 L 14.90625 869.601562 L 14.90625 869.230469 L 14.902344 869.203125 L 14.902344 868.808594 L 14.898438 868.789062 L 14.898438 868.375 L 14.894531 868.351562 L 14.894531 867.933594 L 14.890625 867.910156 L 14.890625 867.449219 L 14.886719 867.429688 L 14.886719 866.945312 L 14.882812 866.929688 L 14.882812 866.417969 L 14.878906 866.40625 L 14.878906 865.863281 L 14.875 865.847656 L 14.875 865.257812 L 14.871094 865.25 L 14.871094 864.59375 L 14.867188 864.585938 L 14.867188 863.863281 L 14.863281 863.855469 L 14.863281 863.03125 L 14.859375 863.027344 L 14.859375 862.03125 L 14.855469 862.03125 L 14.855469 860.710938 L 14.851562 860.707031 L 14.851562 859.757812 "/>
</g>
<path fill="none" stroke-width="2.1" stroke-linecap="square" stroke-linejoin="miter" stroke="rgb(44.999695%, 44.999695%, 44.999695%)" stroke-opacity="1" stroke-miterlimit="3.25" d="M 1794 1794 L 6 1794 "/>
<path fill="none" stroke-width="2.1" stroke-linecap="square" stroke-linejoin="miter" stroke="rgb(44.999695%, 44.999695%, 44.999695%)" stroke-opacity="1" stroke-miterlimit="3.25" d="M 6 1794 L 6 6 "/>
<path fill="none" stroke-width="2.1" stroke-linecap="square" stroke-linejoin="miter" stroke="rgb(44.999695%, 44.999695%, 44.999695%)" stroke-opacity="1" stroke-miterlimit="3.25" d="M 6 6 L 1794 6 "/>
<path fill="none" stroke-width="2.1" stroke-linecap="square" stroke-linejoin="miter" stroke="rgb(44.999695%, 44.999695%, 44.999695%)" stroke-opacity="1" stroke-miterlimit="3.25" d="M 1794 6 L 1794 1794 "/>
</svg>
