<?xml version="1.0" encoding="UTF-8"?>
<svg xmlns="http://www.w3.org/2000/svg" xmlns:xlink="http://www.w3.org/1999/xlink" width="1800pt" height="1800pt" viewBox="0 0 1800 1800">
<defs>
<clipPath id="clip-0">
<path clip-rule="nonzero" d="M 6 6 L 1794 6 L 1794 1794 L 6 1794 Z M 6 6 "/>
</clipPath>
</defs>
<g clip-path="url(#clip-0)">
<path fill="none" stroke-width="17.88" stroke-linecap="square" stroke-linejoin="miter" stroke="rgb(36.84082%, 50.67749%, 70.979309%)" stroke-opacity="1" stroke-miterlimit="3.25" d="M 1195.054688 14.851562 L 1195.078125 14.851562 L 1195.09375 14.855469 L 1195.125 14.859375 L 1195.191406 14.863281 L 1195.300781 14.875 L 1195.527344 14.902344 L 1195.949219 14.957031 L 1196.664062 15.054688 L 1198.074219 15.273438 L 1200.460938 15.683594 L 1204.550781 16.476562 L 1212.425781 18.238281 L 1212.578125 18.273438 L 1212.730469 18.3125 L 1213.042969 18.386719 L 1213.683594 18.542969 L 1215.03125 18.875 L 1218.015625 19.636719 L 1225.351562 21.636719 L 1225.636719 21.71875 L 1225.925781 21.800781 L 1226.507812 21.96875 L 1227.710938 22.316406 L 1230.246094 23.0625 L 1235.910156 24.804688 L 1236.292969 24.921875 L 1236.679688 25.046875 L 1237.460938 25.292969 L 1239.070312 25.8125 L 1242.46875 26.925781 L 1250.058594 29.527344 L 1250.535156 29.695312 L 1251.019531 29.867188 L 1251.996094 30.214844 L 1254 30.933594 L 1258.214844 32.484375 L 1267.5625 36.078125 L 1268.191406 36.324219 L 1268.824219 36.578125 L 1270.105469 37.089844 L 1272.734375 38.152344 L 1278.269531 40.445312 L 1290.527344 45.777344 L 1291.332031 46.140625 L 1292.144531 46.507812 L 1293.792969 47.257812 L 1297.167969 48.8125 L 1304.261719 52.164062 L 1319.929688 59.972656 L 1320.976562 60.515625 L 1322.035156 61.066406 L 1324.175781 62.1875 L 1328.566406 64.515625 L 1337.789062 69.554688 L 1358.121094 81.351562 L 1359.59375 82.246094 L 1361.082031 83.152344 L 1364.097656 85.003906 L 1370.289062 88.871094 L 1383.320312 97.3125 L 1412.183594 117.476562 L 1414.117188 118.902344 L 1416.070312 120.351562 L 1420.019531 123.308594 L 1428.109375 129.5 L 1445.085938 143.054688 L 1482.332031 175.621094 L 1484.640625 177.777344 L 1486.964844 179.964844 L 1491.664062 184.433594 L 1501.242188 193.765625 L 1521.121094 214.109375 L 1523.671875 216.820312 L 1526.238281 219.574219 L 1531.414062 225.195312 L 1541.9375 236.933594 L 1563.636719 262.542969 L 1566.40625 265.957031 L 1569.1875 269.421875 L 1574.789062 276.496094 L 1586.121094 291.273438 L 1609.253906 323.488281 L 1612.183594 327.78125 L 1615.117188 332.132812 L 1621.003906 341.027344 L 1632.839844 359.585938 L 1656.605469 399.972656 L 1659.820312 405.796875 L 1663.03125 411.707031 L 1669.4375 423.796875 L 1682.148438 449.078125 L 1685.300781 455.632812 L 1688.4375 462.285156 L 1694.667969 475.878906 L 1706.898438 504.257812 L 1709.898438 511.609375 L 1712.875 519.0625 L 1718.742188 534.28125 L 1730.085938 566 L 1732.828125 574.199219 L 1735.53125 582.511719 L 1740.804688 599.464844 L 1750.757812 634.703125 L 1753.109375 643.796875 L 1755.402344 653 L 1759.796875 671.75 L 1761.894531 681.296875 L 1763.921875 690.957031 L 1767.753906 710.613281 L 1769.554688 720.609375 L 1771.269531 730.722656 L 1772.90625 740.945312 L 1774.449219 751.277344 L 1775.90625 761.726562 L 1777.269531 772.28125 L 1778.53125 782.945312 L 1779.699219 793.722656 L 1780.757812 804.605469 L 1781.714844 815.59375 L 1782.5625 826.6875 L 1783.292969 837.886719 L 1783.910156 849.1875 L 1784.40625 860.59375 L 1784.78125 872.09375 L 1785.03125 883.695312 L 1785.148438 895.390625 L 1785.132812 907.179688 L 1784.984375 919.058594 L 1784.691406 931.027344 L 1784.257812 943.085938 L 1783.675781 955.226562 L 1782.945312 967.445312 L 1782.0625 979.746094 L 1781.042969 991.894531 L 1779.867188 1004.113281 L 1778.535156 1016.394531 L 1777.046875 1028.742188 L 1775.390625 1041.148438 L 1773.570312 1053.613281 L 1769.417969 1078.6875 L 1767.078125 1091.296875 L 1764.566406 1103.945312 L 1761.871094 1116.625 L 1758.992188 1129.339844 L 1755.929688 1142.082031 L 1752.679688 1154.847656 L 1745.605469 1180.421875 L 1741.78125 1193.222656 L 1737.757812 1206.027344 L 1729.117188 1231.617188 L 1724.496094 1244.394531 L 1719.671875 1257.152344 L 1709.410156 1282.589844 L 1703.96875 1295.253906 L 1698.324219 1307.875 L 1686.40625 1332.96875 L 1660.078125 1382.371094 L 1652.972656 1394.523438 L 1645.664062 1406.582031 L 1630.425781 1430.398438 L 1622.503906 1442.140625 L 1614.375 1453.769531 L 1597.519531 1476.648438 L 1588.792969 1487.890625 L 1579.875 1498.988281 L 1561.460938 1520.734375 L 1522.414062 1562.273438 L 1512.210938 1572.21875 L 1501.835938 1581.980469 L 1480.59375 1600.917969 L 1469.730469 1610.089844 L 1458.71875 1619.058594 L 1436.246094 1636.359375 L 1424.800781 1644.6875 L 1413.222656 1652.792969 L 1389.679688 1668.324219 L 1341.210938 1696.601562 L 1329.671875 1702.644531 L 1318.054688 1708.476562 L 1294.601562 1719.507812 L 1282.773438 1724.699219 L 1270.886719 1729.675781 L 1246.949219 1738.976562 L 1234.90625 1743.304688 L 1222.824219 1747.410156 L 1210.703125 1751.304688 L 1198.550781 1754.976562 L 1186.371094 1758.433594 L 1174.171875 1761.675781 L 1149.714844 1767.511719 L 1137.472656 1770.105469 L 1125.226562 1772.492188 L 1112.980469 1774.664062 L 1100.738281 1776.625 L 1088.503906 1778.382812 L 1076.28125 1779.929688 L 1064.078125 1781.273438 L 1051.894531 1782.410156 L 1039.738281 1783.351562 L 1027.609375 1784.09375 L 1015.511719 1784.636719 L 1003.453125 1784.988281 L 991.4375 1785.148438 L 979.460938 1785.121094 L 967.535156 1784.90625 L 955.660156 1784.507812 L 943.835938 1783.929688 L 932.070312 1783.171875 L 920.367188 1782.242188 L 908.726562 1781.140625 L 897.148438 1779.871094 L 885.644531 1778.4375 L 874.207031 1776.839844 L 862.847656 1775.085938 L 851.5625 1773.175781 L 840.355469 1771.113281 L 829.230469 1768.902344 L 818.191406 1766.546875 L 807.234375 1764.050781 L 796.363281 1761.414062 L 774.890625 1755.742188 L 764.292969 1752.710938 L 753.789062 1749.554688 L 733.0625 1742.882812 L 722.847656 1739.375 L 712.730469 1735.753906 L 692.792969 1728.195312 L 682.976562 1724.261719 L 673.261719 1720.230469 L 654.140625 1711.890625 L 617.148438 1694.175781 L 607.410156 1689.15625 L 597.796875 1684.050781 L 578.9375 1673.601562 L 542.707031 1651.84375 L 533.960938 1646.246094 L 525.332031 1640.589844 L 508.445312 1629.121094 L 476.117188 1605.632812 L 468.332031 1599.664062 L 460.664062 1593.664062 L 445.671875 1581.570312 L 417.058594 1557.097656 L 365.042969 1507.492188 L 359.007812 1501.269531 L 353.070312 1495.046875 L 341.492188 1482.613281 L 319.472656 1457.816406 L 279.714844 1408.804688 L 275.125 1402.753906 L 270.609375 1396.726562 L 261.816406 1384.726562 L 245.136719 1361.007812 L 215.121094 1314.796875 L 211.890625 1309.519531 L 208.710938 1304.265625 L 202.511719 1293.839844 L 190.722656 1273.304688 L 169.386719 1233.523438 L 166.917969 1228.675781 L 164.488281 1223.855469 L 159.75 1214.296875 L 150.742188 1195.519531 L 134.445312 1159.296875 L 132.558594 1154.894531 L 130.699219 1150.519531 L 127.082031 1141.851562 L 120.195312 1124.84375 L 107.734375 1092.113281 L 87.277344 1031.578125 L 86.191406 1028.074219 L 85.121094 1024.589844 L 83.035156 1017.695312 L 79.058594 1004.167969 L 71.832031 978.140625 L 70.988281 974.980469 L 70.164062 971.84375 L 68.546875 965.625 L 65.464844 953.425781 L 59.855469 929.953125 L 59.203125 927.101562 L 58.558594 924.269531 L 57.304688 918.65625 L 54.90625 907.640625 L 50.535156 886.429688 L 43.253906 847.023438 L 42.820312 844.488281 L 42.394531 841.96875 L 41.5625 836.980469 L 39.980469 827.191406 L 37.109375 808.355469 L 36.777344 806.070312 L 36.449219 803.792969 L 35.808594 799.289062 L 34.585938 790.445312 L 32.367188 773.402344 L 32.105469 771.328125 L 31.851562 769.269531 L 31.355469 765.183594 L 30.410156 757.164062 L 28.683594 741.675781 L 25.8125 712.765625 L 25.664062 711.160156 L 25.519531 709.558594 L 25.238281 706.386719 L 24.695312 700.136719 L 23.699219 688.011719 L 23.582031 686.53125 L 23.464844 685.058594 L 23.242188 682.128906 L 22.808594 676.359375 L 22.011719 665.152344 L 21.917969 663.78125 L 21.824219 662.417969 L 21.644531 659.707031 L 21.296875 654.363281 L 20.660156 643.972656 L 19.570312 624.28125 L 19.507812 623 L 19.441406 621.722656 L 19.316406 619.183594 L 19.074219 614.179688 L 18.632812 604.441406 L 18.578125 603.25 L 18.527344 602.0625 L 18.429688 599.707031 L 18.234375 595.054688 L 17.882812 585.992188 L 17.84375 584.882812 L 17.800781 583.777344 L 17.722656 581.578125 L 17.570312 577.242188 L 17.289062 568.78125 L 16.816406 552.679688 L 16.789062 551.726562 L 16.765625 550.773438 L 16.714844 548.882812 L 16.617188 545.148438 L 16.441406 537.84375 L 16.421875 536.945312 L 16.402344 536.050781 L 16.359375 534.273438 L 16.285156 530.753906 L 16.140625 523.875 L 16.125 523.027344 L 16.109375 522.183594 L 16.074219 520.507812 L 16.011719 517.191406 L 15.898438 510.691406 L 15.703125 498.226562 L 15.691406 497.523438 L 15.683594 496.820312 L 15.664062 495.417969 L 15.625 492.644531 L 15.554688 487.195312 L 15.539062 485.851562 L 15.519531 484.519531 L 15.488281 481.878906 L 15.433594 476.6875 L 15.417969 475.40625 L 15.40625 474.136719 L 15.378906 471.617188 L 15.332031 466.660156 L 15.25 457.085938 L 15.242188 456.453125 L 15.238281 455.820312 L 15.230469 454.5625 L 15.210938 452.070312 L 15.175781 447.171875 L 15.171875 446.566406 L 15.167969 445.964844 L 15.160156 444.765625 L 15.144531 442.386719 L 15.113281 437.710938 L 15.113281 437.136719 L 15.109375 436.558594 L 15.101562 435.414062 L 15.089844 433.140625 L 15.066406 428.671875 L 15.027344 420.027344 L 15.023438 419.535156 L 15.023438 419.042969 L 15.019531 418.0625 L 15.011719 416.117188 L 14.996094 412.285156 L 14.996094 411.8125 L 14.992188 411.339844 L 14.988281 410.398438 L 14.984375 408.527344 L 14.972656 404.84375 L 14.96875 404.386719 L 14.96875 403.933594 L 14.964844 403.027344 L 14.960938 401.226562 L 14.953125 397.683594 L 14.933594 390.785156 L 14.933594 389.871094 L 14.929688 388.960938 L 14.925781 387.152344 L 14.917969 383.589844 L 14.917969 382.710938 L 14.914062 381.835938 L 14.914062 380.097656 L 14.90625 376.671875 L 14.90625 375.828125 L 14.902344 374.984375 L 14.902344 373.3125 L 14.898438 370.015625 L 14.886719 363.597656 L 14.886719 360.535156 L 14.882812 357.523438 L 14.882812 356.78125 L 14.878906 356.039062 L 14.878906 354.566406 L 14.875 351.660156 L 14.875 348.804688 L 14.871094 345.996094 L 14.867188 340.519531 L 14.867188 335.269531 L 14.863281 334.964844 L 14.863281 328.429688 L 14.859375 326.121094 L 14.859375 314.523438 L 14.855469 312.238281 L 14.855469 291.945312 L 14.851562 288.316406 L 14.851562 17.546875 "/>
</g>
<path fill="none" stroke-width="2.1" stroke-linecap="square" stroke-linejoin="miter" stroke="rgb(44.999695%, 44.999695%, 44.999695%)" stroke-opacity="1" stroke-miterlimit="3.25" d="M 1794 1794 L 6 1794 "/>
<path fill="none" stroke-width="2.1" stroke-linecap="square" stroke-linejoin="miter" stroke="rgb(44.999695%, 44.999695%, 44.999695%)" stroke-opacity="1" stroke-miterlimit="3.25" d="M 6 1794 L 6 6 "/>
<path fill="none" stroke-width="2.1" stroke-linecap="square" stroke-linejoin="miter" stroke="rgb(44.999695%, 44.999695%, 44.999695%)" stroke-opacity="1" stroke-miterlimit="3.25" d="M 6 6 L 1794 6 "/>
<path fill="none" stroke-width="2.1" stroke-linecap="square" stroke-linejoin="miter" stroke="rgb(44.999695%, 44.999695%, 44.999695%)" stroke-opacity="1" stroke-miterlimit="3.25" d="M 1794 6 L 1794 1794 "/>
</svg>
