<?xml version='1.0' encoding='UTF-8'?>
<svg width="33mm" height="33mm" version="1.1" viewBox="0 0 33 33" xmlns="http://www.w3.org/2000/svg">
<defs>
<linearGradient id="metallic" x1="0" y1="0" x2="1" y2="1">
<stop offset="0%" stop-color="#EDE8E0"/>
<stop offset="50%" stop-color="#A0ADB8"/>
<stop offset="100%" stop-color="#CCC0B0"/>
</linearGradient>
</defs>
<path d="M2,2H3V3H2zM3,2H4V3H3zM4,2H5V3H4zM5,2H6V3H5zM6,2H7V3H6zM7,2H8V3H7zM8,2H9V3H8zM10,2H11V3H10zM11,2H12V3H11zM13,2H14V3H13zM14,2H15V3H14zM17,2H18V3H17zM18,2H19V3H18zM20,2H21V3H20zM21,2H22V3H21zM22,2H23V3H22zM24,2H25V3H24zM25,2H26V3H25zM26,2H27V3H26zM27,2H28V3H27zM28,2H29V3H28zM29,2H30V3H29zM30,2H31V3H30zM2,3H3V4H2zM8,3H9V4H8zM10,3H11V4H10zM11,3H12V4H11zM13,3H14V4H13zM16,3H17V4H16zM17,3H18V4H17zM19,3H20V4H19zM22,3H23V4H22zM24,3H25V4H24zM30,3H31V4H30zM2,4H3V5H2zM4,4H5V5H4zM5,4H6V5H5zM6,4H7V5H6zM8,4H9V5H8zM12,4H13V5H12zM13,4H14V5H13zM15,4H16V5H15zM16,4H17V5H16zM17,4H18V5H17zM20,4H21V5H20zM21,4H22V5H21zM22,4H23V5H22zM24,4H25V5H24zM26,4H27V5H26zM27,4H28V5H27zM28,4H29V5H28zM30,4H31V5H30zM2,5H3V6H2zM4,5H5V6H4zM5,5H6V6H5zM6,5H7V6H6zM8,5H9V6H8zM10,5H11V6H10zM11,5H12V6H11zM12,5H13V6H12zM14,5H15V6H14zM18,5H19V6H18zM19,5H20V6H19zM20,5H21V6H20zM22,5H23V6H22zM24,5H25V6H24zM26,5H27V6H26zM27,5H28V6H27zM28,5H29V6H28zM30,5H31V6H30zM2,6H3V7H2zM4,6H5V7H4zM5,6H6V7H5zM6,6H7V7H6zM8,6H9V7H8zM12,6H13V7H12zM13,6H14V7H13zM14,6H15V7H14zM15,6H16V7H15zM21,6H22V7H21zM24,6H25V7H24zM26,6H27V7H26zM27,6H28V7H27zM28,6H29V7H28zM30,6H31V7H30zM2,7H3V8H2zM8,7H9V8H8zM11,7H12V8H11zM13,7H14V8H13zM16,7H17V8H16zM20,7H21V8H20zM21,7H22V8H21zM22,7H23V8H22zM24,7H25V8H24zM30,7H31V8H30zM2,8H3V9H2zM3,8H4V9H3zM4,8H5V9H4zM5,8H6V9H5zM6,8H7V9H6zM7,8H8V9H7zM8,8H9V9H8zM10,8H11V9H10zM12,8H13V9H12zM14,8H15V9H14zM16,8H17V9H16zM18,8H19V9H18zM20,8H21V9H20zM22,8H23V9H22zM24,8H25V9H24zM25,8H26V9H25zM26,8H27V9H26zM27,8H28V9H27zM28,8H29V9H28zM29,8H30V9H29zM30,8H31V9H30zM10,9H11V10H10zM11,9H12V10H11zM14,9H15V10H14zM15,9H16V10H15zM16,9H17V10H16zM19,9H20V10H19zM20,9H21V10H20zM22,9H23V10H22zM2,10H3V11H2zM4,10H5V11H4zM5,10H6V11H5zM7,10H8V11H7zM8,10H9V11H8zM9,10H10V11H9zM11,10H12V11H11zM15,10H16V11H15zM16,10H17V11H16zM18,10H19V11H18zM19,10H20V11H19zM20,10H21V11H20zM21,10H22V11H21zM24,10H25V11H24zM27,10H28V11H27zM29,10H30V11H29zM30,10H31V11H30zM2,11H3V12H2zM3,11H4V12H3zM4,11H5V12H4zM5,11H6V12H5zM6,11H7V12H6zM10,11H12V12H10zM17,11H19V12H17zM20,11H23V12H20zM24,11H27V12H24zM30,11H31V12H30zM2,12H5V13H2zM6,12H11V13H6zM12,12H15V13H12zM16,12H18V13H16zM19,12H20V13H19zM22,12H23V13H22zM25,12H26V13H25zM28,12H30V13H28zM2,13H6V14H2zM7,13H8V14H7zM9,13H11V14H9zM13,13H14V14H13zM15,13H18V14H15zM20,13H23V14H20zM25,13H26V14H25zM30,13H31V14H30zM2,14H4V15H2zM8,14H9V15H8zM12,14H13V15H12zM14,14H15V15H14zM19,14H20V15H19zM25,14H26V15H25zM27,14H29V15H27zM2,15H3V16H2zM6,15H8V16H6zM9,15H10V16H9zM12,15H13V16H12zM14,15H16V16H14zM19,15H22V16H19zM24,15H25V16H24zM28,15H31V16H28zM3,16H4V17H3zM6,16H9V17H6zM10,16H13V17H10zM14,16H15V17H14zM16,16H17V17H16zM19,16H20V17H19zM21,16H24V17H21zM25,16H26V17H25zM28,16H31V17H28zM6,17H8V18H6zM10,17H12V18H10zM13,17H16V18H13zM18,17H19V18H18zM20,17H23V18H20zM24,17H27V18H24zM29,17H30V18H29zM3,18H6V19H3zM8,18H9V19H8zM10,18H15V19H10zM17,18H18V19H17zM20,18H24V19H20zM25,18H28V19H25zM29,18H30V19H29zM3,19H5V20H3zM11,19H12V20H11zM15,19H16V20H15zM17,19H19V20H17zM20,19H21V20H20zM23,19H24V20H23zM25,19H26V20H25zM27,19H30V20H27zM2,20H3V21H2zM6,20H7V21H6zM8,20H10V21H8zM11,20H14V21H11zM17,20H18V21H17zM22,20H23V21H22zM26,20H27V21H26zM28,20H29V21H28zM6,21H8V22H6zM10,21H11V22H10zM14,21H15V22H14zM17,21H20V22H17zM21,21H23V22H21zM24,21H26V22H24zM28,21H29V22H28zM3,22H10V23H3zM12,22H16V23H12zM19,22H20V23H19zM21,22H29V23H21zM10,23H11V24H10zM15,23H17V24H15zM19,23H21V24H19zM22,23H23V24H22zM26,23H31V24H26zM2,24H9V25H2zM10,24H11V25H10zM13,24H14V25H13zM15,24H16V25H15zM19,24H23V25H19zM24,24H25V25H24zM26,24H28V25H26zM29,24H30V25H29zM2,25H3V26H2zM8,25H9V26H8zM10,25H11V26H10zM13,25H14V26H13zM17,25H19V26H17zM20,25H21V26H20zM22,25H23V26H22zM26,25H28V26H26zM29,25H31V26H29zM2,26H3V27H2zM4,26H7V27H4zM8,26H9V27H8zM11,26H13V27H11zM16,26H21V27H16zM22,26H27V27H22zM28,26H30V27H28zM2,27H3V28H2zM4,27H7V28H4zM8,27H9V28H8zM10,27H13V28H10zM14,27H15V28H14zM16,27H18V28H16zM19,27H22V28H19zM26,27H28V28H26zM30,27H31V28H30zM2,28H3V29H2zM4,28H7V29H4zM8,28H9V29H8zM10,28H12V29H10zM14,28H15V29H14zM18,28H20V29H18zM21,28H22V29H21zM25,28H26V29H25zM28,28H29V29H28zM30,28H31V29H30zM2,29H3V30H2zM8,29H9V30H8zM13,29H18V30H13zM20,29H21V30H20zM22,29H23V30H22zM24,29H25V30H24zM26,29H28V30H26zM29,29H30V30H29zM2,30H9V31H2zM10,30H11V31H10zM12,30H13V31H12zM14,30H16V31H14zM18,30H19V31H18zM21,30H23V31H21zM24,30H25V31H24zM26,30H27V31H26zM29,30H30V31H29z" fill="url(#metallic)" fill-rule="nonzero" stroke="none" />
</svg>
